# xmcd
#
# Track frame offsets:
#	150
#	14857
#	28902
#	45259
#	58599
#	74403
#	100360
#	113865
#	133048
#	148230
#	166411
#	184949
#	198959
#	211589
#	228617
#	242754
#
# Disc length: 3644 seconds
#
# Revision: 1
# Processed by: cddbd v1.5.2PL0 Copyright (c) Steve Scherf et al.
# Submitted via: audiograbber 1.83.01
#
DISCID=ef0e3a10
DTITLE=Thomas Leary - TL Thomas Leary
DYEAR=1900
DGENRE=
TTITLE0=Railroad Ruthie
TTITLE1=Loving You Forever
TTITLE2=Back In The USA
TTITLE3=Bluegrass Baby
TTITLE4=Arizona Highway
TTITLE5=In The Daytime
TTITLE6=Arizona Woman
TTITLE7=Hard Road
TTITLE8=Trail´s Got Me Mama
TTITLE9=The Test
TTITLE10=It´s About Family
TTITLE11=Lone Star Moon
TTITLE12=Crystal
TTITLE13=Slipped
TTITLE14=Camelback Mountain
TTITLE15=Adiós
EXTD=
EXTT0=
EXTT1=
EXTT2=
EXTT3=
EXTT4=
EXTT5=
EXTT6=
EXTT7=
EXTT8=
EXTT9=
EXTT10=
EXTT11=
EXTT12=
EXTT13=
EXTT14=
EXTT15=
PLAYORDER=
